<svg xmlns="http://www.w3.org/2000/svg" width="32" height="32" fill="none"><path fill="#BDC4CD" fill-rule="evenodd" d="M16.017 18.895a2.881 2.881 0 0 0 2.885-2.878 2.881 2.881 0 0 0-2.885-2.877 2.881 2.881 0 0 0-2.884 2.877 2.881 2.881 0 0 0 2.884 2.878Zm3.322-5.826h2.028a.42.42 0 0 0 .42-.418v-2.024a.42.42 0 0 0-.42-.418h-2.028a.42.42 0 0 0-.42.418v2.024c0 .23.189.418.42.418Zm4.161 8.652c0 .982-.798 1.779-1.783 1.779H10.283A1.782 1.782 0 0 1 8.5 21.72V10.279A1.78 1.78 0 0 1 10.283 8.5h11.434a1.78 1.78 0 0 1 1.783 1.778v11.443ZM16 1C7.715 1 1 7.715 1 16c0 8.284 6.715 15 15 15s15-6.716 15-15c0-8.285-6.715-15-15-15Zm4.58 15.017a4.563 4.563 0 0 1-9.125 0c0-.416.056-.82.162-1.204h-1.403v6.523c0 .232.187.42.419.42h10.769a.42.42 0 0 0 .42-.42v-6.523h-1.404c.106.384.162.788.162 1.204Z" clip-rule="evenodd"/></svg>