<svg width="30" height="30" viewBox="0 0 30 30" fill="none" xmlns="http://www.w3.org/2000/svg">
<path fill-rule="evenodd" clip-rule="evenodd" d="M20.9644 11.9409C20.97 12.0731 20.9738 12.2053 20.9738 12.3394C20.9738 16.4053 17.8781 21.0947 12.2175 21.0947C10.4794 21.0947 8.86219 20.5856 7.5 19.7128C7.74094 19.7409 7.98562 19.755 8.23406 19.755C9.67594 19.755 11.0025 19.2638 12.0562 18.4378C10.7091 18.4134 9.57281 17.5238 9.18094 16.3013C9.36938 16.3369 9.56156 16.3556 9.76031 16.3556C10.0406 16.3556 10.3125 16.3181 10.5712 16.2478C9.16313 15.9656 8.10281 14.7216 8.10281 13.2309C8.10281 13.2178 8.10281 13.2047 8.10281 13.1916C8.51719 13.4222 8.9925 13.5609 9.49687 13.5769C8.67094 13.0247 8.12719 12.0825 8.12719 11.0156C8.12719 10.4513 8.27906 9.9225 8.54437 9.46781C10.0622 11.3297 12.33 12.555 14.8875 12.6834C14.835 12.4584 14.8078 12.2231 14.8078 11.9822C14.8078 10.2825 16.1859 8.90438 17.8847 8.90438C18.7706 8.90438 19.5703 9.27844 20.1309 9.87656C20.8322 9.73875 21.4912 9.48281 22.0856 9.13031C21.8559 9.84844 21.3675 10.4513 20.7328 10.8328C21.3553 10.7578 21.9478 10.5928 22.5 10.3481C22.0875 10.965 21.5653 11.5069 20.9644 11.9409ZM15 0C6.71531 0 0 6.71531 0 15C0 23.2837 6.71531 30 15 30C23.2847 30 30 23.2837 30 15C30 6.71531 23.2847 0 15 0Z" fill="#BDC4CD"/>
</svg>
